C:\GBW_MyPrograms\KinderuniversiteitApp\Resultaten\Ellis\Olaf\Olaf_v3.mot
version=1
nRows=6
nColumns=29
inDegrees=yes
endheader
                time	         pelvis_tilt	           pelvis_tx	           pelvis_ty	       hip_flexion_l	       hip_flexion_r	        knee_angle_l	        knee_angle_r	       ankle_angle_l	       ankle_angle_r	    lumbar_extension	hamstrings_r/activation	bifemsh_r/activation	glut_max_r/activation	iliopsoas_r/activation	rect_fem_r/activation	  vasti_r/activation	gastroc_r/activation	 soleus_r/activation	tib_ant_r/activation	hamstrings_l/activation	bifemsh_l/activation	glut_max_l/activation	iliopsoas_l/activation	rect_fem_l/activation	  vasti_l/activation	gastroc_l/activation	 soleus_l/activation	tib_ant_l/activation	
          0.10000000	         -8.22362690	          0.12499999	          0.91249552	         18.88977405	         13.78650293	        -23.96712371	        -14.33490149	         13.58690462	         11.14037893	         -6.11139465	          0.49109699	          0.86654966	          0.44930930	          0.85821279	          0.32710896	          0.42558322	          0.95996338	          0.81666725	          0.18331781	          0.09539271	          0.20340628	          0.89931683	          0.21910320	          0.98057038	          0.96451313	          0.19346610	          0.15850067	          0.94451502	
          0.10200000	         -8.24835118	          0.12508962	          0.91250164	         18.87367232	         13.85204281	        -23.87456144	        -14.41314207	         13.62648267	         11.11164586	         -6.08134660	          0.47561706	          0.88224702	          0.43481566	          0.87489227	          0.31655752	          0.41185480	          0.96466676	          0.79032382	          0.17740478	          0.09231578	          0.19684495	          0.91116169	          0.21203544	          0.98285549	          0.96868798	          0.18722534	          0.15338799	          0.91404770	
          0.10400000	         -8.27738997	          0.12517717	          0.91249909	         18.85181642	         13.93111952	        -23.76347425	        -14.50876145	         13.66383851	         11.09005371	         -6.04600411	          0.46028640	          0.89609691	          0.42078956	          0.88960914	          0.30634646	          0.39856923	          0.93355396	          0.76483007	          0.17168252	          0.08933814	          0.19049527	          0.92161306	          0.20519566	          0.98487170	          0.97237166	          0.18118590	          0.14844032	          0.88456286	
          0.10600000	         -8.31076061	          0.12526270	          0.91248711	         18.82443462	         14.02366907	        -23.63433947	        -14.62160844	         13.69792478	         11.07586069	         -6.00534573	          0.44544281	          0.90831600	          0.40721592	          0.90259413	          0.29646479	          0.38571223	          0.90344121	          0.74015863	          0.16614486	          0.08645661	          0.18435043	          0.93083486	          0.19857652	          0.98665063	          0.97562198	          0.17534128	          0.14365247	          0.85602901	
          0.10800000	         -8.34832133	          0.12534628	          0.91246520	         18.79159595	         14.12941783	        -23.48767549	        -14.75147856	         13.72840575	         11.06940360	         -5.95954903	          0.43107607	          0.91909384	          0.39408015	          0.91405065	          0.28690190	          0.37326997	          0.87429905	          0.71628298	          0.16078585	          0.08366809	          0.17840381	          0.93897175	          0.19217090	          0.98822018	          0.97848990	          0.16968521	          0.13901993	          0.82841552	
          0.11000000	         -8.38932227	          0.12542809	          0.91243384	         18.75266518	         14.24732950	        -23.32388921	        -14.89794909	         13.75421619	         11.07082928	         -5.90953057	          0.41717196	          0.88953139	          0.38136811	          0.92415694	          0.27764751	          0.36122908	          0.84609661	          0.69317746	          0.15559973	          0.08096962	          0.17264902	          0.94615136	          0.18597192	          0.98960498	          0.98102041	          0.16421161	          0.24030804	          0.80169274	
